<?xml version="1.0" encoding="UTF-8"?>
<svg width="1200pt" height="1200pt" version="1.1" viewBox="0 0 1200 1200" xmlns="http://www.w3.org/2000/svg">
 <g fill="#007335">
  <path d="m949.2 1051.2-68.398-163.2c0-1.1992-1.1992-2.3984-2.3984-3.6016 0-1.1992 1.1992-3.6016 1.1992-4.8008 0-43.199-34.801-78-78-78-42 0-76.801 33.602-78 74.398h-19.199c8.3984-12 13.199-27.602 13.199-43.199 0-43.199-34.801-78-78-78-43.199 0-78 34.801-78 78 0 15.602 4.8008 31.199 13.199 43.199h-16.801c-7.1992 0-13.199 4.8008-16.801 10.801l-68.398 163.2c-37.199 1.1992-67.199 32.398-67.199 70.801 0 38.398 31.199 70.801 70.801 70.801h470.4c38.398 0 70.801-31.199 70.801-70.801 0-37.195-30-68.398-68.402-69.598zm-309.6-259.2c22.801 0 42 19.199 42 42s-19.203 42-42 42c-22.801 0-42-19.199-42-42s19.199-42 42-42zm162 45.602c21.602 0 39.602 16.801 42 38.398h-82.801c1.1992-21.602 19.199-38.398 40.801-38.398zm-231.6 75.598h282l74.398 177.6h-432zm376.8 242.4h-470.4c-19.199 0-34.801-15.602-34.801-34.801 0-10.801 4.8008-20.398 13.199-26.398l-2.3984 6c-2.3984 6-1.1992 12 1.1992 16.801 3.6016 4.8008 8.3984 8.3984 14.398 8.3984h486c6 0 12-3.6016 14.398-8.3984 3.6016-4.8008 3.6016-10.801 1.1992-16.801l-2.3984-6c8.3984 6 13.199 15.602 13.199 26.398 1.207 19.199-14.395 34.801-33.594 34.801z"/>
  <path d="m655.2 669.6 26.398 26.398c24 24 52.801 36 81.602 36 37.199 0 75.602-18 112.8-55.199l56.398-56.398c7.1992-7.1992 7.1992-18 0-25.199l-112.8-112.8c-9.6016-9.6016-14.398-21.602-14.398-34.801 0-13.199 4.8008-25.199 14.398-34.801 15.602-15.602 25.199-37.199 25.199-60 0-3.6016 0-7.1992-1.1992-9.6016l32.402-244.8c1.1992-7.1992-3.6016-15.602-9.6016-18-7.1992-3.6016-15.602-2.3984-20.398 3.6016l-42 42-6-100.8c0-7.1992-4.8008-13.199-12-15.602-7.1992-2.3984-14.398-1.1992-19.199 3.6016l-147.6 146.4c-61.199 9.6016-130.8 43.199-190.8 127.2-32.398-14.398-114-48-225.6-57.602-9.6016-1.1992-19.199 6-19.199 16.801-1.1992 9.6016 6 19.199 16.801 19.199 40.801 3.6016 76.801 9.6016 108 18-15.602 55.199-49.199 250.8 160.8 470.4-43.199 18-92.398 30-148.8 30-9.6016 0-18 8.3984-18 18 0 9.6016 8.3984 18 18 18 176.4-1.1992 300-112.8 334.8-150zm114-512.4v2.3984l-10.801 12c-15.602-6-46.801-14.398-85.199-15.602l90-88.801zm-435.6 261.6c-7.1992-61.199 2.3984-106.8 8.3984-127.2 32.398 9.6016 56.398 20.398 70.801 26.398-14.398 50.398-37.199 206.4 138 390-14.398 9.6016-31.199 19.199-48 27.602-123.6-123.6-160.8-240-169.2-316.8zm246 268.8c-187.2-194.4-135.6-351.6-129.6-369.6 126-189.6 297.6-112.8 304.8-109.2 7.1992 3.6016 15.602 1.1992 20.398-3.6016l57.602-58.801-18 142.8-28.801-28.801c-7.1992-7.1992-18-7.1992-25.199 0-7.1992 7.1992-7.1992 18 0 25.199l33.602 33.602c9.6016 9.6016 14.398 21.602 14.398 34.801s-4.8008 25.199-14.398 34.801c0 0 0 1.1992-1.1992 1.1992l-32.398-32.398c-7.1992-7.1992-18-7.1992-25.199 0-7.1992 7.1992-7.1992 18 0 25.199l38.398 38.398c-2.3984 8.3984-4.8008 18-4.8008 27.602 0 22.801 8.3984 44.398 25.199 60l99.602 99.602-42.004 44.398c-24 24-87.602 75.602-144 19.199l-111.6-111.6c-7.1992-7.1992-18-7.1992-25.199 0-7.1992 7.1992-7.1992 18 0 25.199l58.801 58.801c-9.6016 9.6016-26.398 25.203-50.398 43.203z"/>
 </g>
</svg>
