
<svg xmlns="http://www.w3.org/2000/svg" width="50" height="50" viewBox="0 0 50 50">
  <g >
    <path id="Fill_1" data-name="Fill 1" d="M7.1,0a16.1,16.1,0,0,0-2.59,2.258l.029.04A28.346,28.346,0,0,1,8.566,6.362a11.36,11.36,0,0,1,2.325,4.205c.018.059.033.12.05.179s.027.1.039.156a7.374,7.374,0,0,1,.228,1.464c0,.062.01.122.013.184,0,0,0,.006,0,.009h0c.007.136.011.274.011.413,0,4.864-4.135,8.062-4.135,8.062s-4.134-3.2-4.134-8.062a9.179,9.179,0,0,1,.918-3.936A16.416,16.416,0,0,1,.236,10.393,14.336,14.336,0,0,0,0,12.972c0,8.349,7.1,12.971,7.1,12.971s7.1-4.622,7.1-12.971S7.1,0,7.1,0" transform="translate(16.398 21.057)" fill="#b3b3b3"/>
    <path id="Fill_2" data-name="Fill 2" d="M9.722,0A15.268,15.268,0,0,0,0,3.636l0,0c.082.056.206.144.367.264L.4,3.927c.079.059.164.125.258.2l.01.008c.2.161.443.357.705.586l.006,0c.4.346.845.767,1.318,1.265l0,0A10.584,10.584,0,0,1,9.722,2.963c4.864,0,8.063,4.134,8.063,4.134s-3.2,4.134-8.063,4.134a9.175,9.175,0,0,1-3.918-.91v0a16.679,16.679,0,0,1,.75,1.691l.021.056a15.855,15.855,0,0,1,.577,1.885.006.006,0,0,0,0,0,14.342,14.342,0,0,0,2.568.234c8.35,0,12.973-7.1,12.973-7.1S18.072,0,9.722,0" transform="translate(24.297 16.408)" fill="#b3b3b3"/>
    <path id="Fill_3" data-name="Fill 3" d="M7.1,0S0,4.622,0,12.972a14.307,14.307,0,0,0,.567,3.991,15.834,15.834,0,0,1,4.916,2.444,10.257,10.257,0,0,1-2.519-6.435C2.963,8.108,7.1,4.909,7.1,4.909s4.135,3.2,4.135,8.063a9.184,9.184,0,0,1-.909,3.918,16.162,16.162,0,0,1,3.638-1.349,14.337,14.337,0,0,0,.234-2.569C14.194,4.622,7.1,0,7.1,0" transform="translate(16.398 0.01)" fill="#7d2248"/>
    <path id="Fill_5" data-name="Fill 5" d="M20.144,8.057a10.678,10.678,0,0,1-7.172,3.175C8.108,11.232,5.267,7.1,5.267,7.1s2.842-4.134,7.706-4.134A10.475,10.475,0,0,1,19.8,5.824l.076-.08a18.524,18.524,0,0,1,2.606-2.277A15.2,15.2,0,0,0,12.972,0C4.622,0,0,7.1,0,7.1s4.622,7.1,12.972,7.1A15.207,15.207,0,0,0,22.5,10.714a18.511,18.511,0,0,1-2.36-2.657" transform="translate(0 16.408)" fill="#a6093d"/>
  </g>
</svg>