<?xml version="1.0" encoding="UTF-8"?>
<svg width="1200pt" height="1200pt" version="1.1" viewBox="0 0 1200 1200" xmlns="http://www.w3.org/2000/svg">
 <g>
  <path d="m949.2 1051.2-68.398-163.2c-2.3984-7.1992-9.6016-10.801-16.801-10.801h-306c-7.1992 0-13.199 4.8008-16.801 10.801l-68.398 163.2c-37.199 1.1992-67.199 32.398-67.199 70.801 0 38.398 31.199 70.801 70.801 70.801h470.4c38.398 0 70.801-31.199 70.801-70.801 0-38.398-30-69.602-68.402-70.801zm-379.2-138h282l74.398 177.6h-432zm376.8 242.4h-471.6c-19.199 0-34.801-15.602-34.801-34.801 0-10.801 4.8008-20.398 13.199-26.398l-2.3984 6c-2.3984 6-1.1992 12 1.1992 16.801 3.6016 4.8008 8.3984 8.3984 14.398 8.3984h486c6 0 12-3.6016 14.398-8.3984 3.6016-4.8008 3.6016-10.801 1.1992-16.801l-2.3984-6c8.3984 6 13.199 15.602 13.199 26.398 2.4062 19.199-13.195 34.801-32.395 34.801z"/>
  <path d="m604.8 756c0 54 42 90 108 90 64.801 0 108-34.801 108-90v-36-1.1992c19.199-9.6016 38.398-22.801 56.398-42l56.398-56.398c3.6016-3.6016 4.8008-8.3984 4.8008-13.199s-2.3984-9.6016-4.8008-13.199l-112.8-112.8c-19.199-19.199-19.199-49.199 0-68.398 15.602-15.602 25.199-37.199 25.199-60 0-3.6016 0-7.1992-1.1992-9.6016l31.203-244.8c1.1992-7.1992-3.6016-15.602-9.6016-18-7.1992-3.6016-15.602-2.3984-20.398 3.6016l-42 42-6-100.8c0-7.1992-4.8008-13.199-12-15.602-7.1992-2.3984-14.398-1.1992-19.199 3.6016l-147.6 146.4c-61.199 9.6016-130.8 43.199-190.8 127.2-32.398-14.398-114-48-225.6-57.602-9.6016-1.1992-19.199 6-19.199 16.801-1.1992 9.6016 6 19.199 16.801 19.199 40.801 3.6016 76.801 9.6016 108 18-15.602 55.199-49.199 250.8 160.8 470.4-43.199 18-92.398 30-148.8 30-9.6016 0-18 8.3984-18 18 0 9.6016 8.3984 18 18 18 127.2 0 226.8-57.602 285.6-104.4v40.801zm36 0v-72-1.1992c6-4.8008 10.801-9.6016 14.398-14.398l26.398 26.398c3.6016 3.6016 8.3984 7.1992 12 10.801v100.8c-22.797-1.2031-52.797-13.203-52.797-50.402zm144 0c0 37.199-30 49.199-54 52.801v-80.398c10.801 3.6016 21.602 6 33.602 6 6 0 13.199-1.1992 20.398-2.3984zm-15.602-598.8v2.3984l-10.801 12c-15.602-6-46.801-14.398-85.199-15.602l90-88.801zm-14.398 51.602s1.1992 0 0 0h1.1992c2.3984 1.1992 3.6016 1.1992 6 1.1992s3.6016 0 6-1.1992 3.6016-2.3984 4.8008-3.6016l57.602-58.801-18 142.8-28.801-28.801c-7.1992-7.1992-18-7.1992-25.199 0-7.1992 7.1992-7.1992 18 0 25.199l33.602 33.602c9.6016 9.6016 14.398 21.602 14.398 34.801s-4.8008 25.199-14.398 34.801c0 0 0 1.1992-1.1992 1.1992l-32.398-32.398c-7.1992-7.1992-18-7.1992-25.199 0-7.1992 7.1992-7.1992 18 0 25.199l38.398 38.398c-9.6016 30-3.6016 63.602 20.398 87.602l99.602 99.602-39.605 44.398c-24 24-87.602 75.602-144 19.199l-111.6-111.6c-7.1992-7.1992-18-7.1992-25.199 0-7.1992 7.1992-7.1992 18 0 25.199l58.801 58.801c-9.6016 9.6016-26.398 25.199-49.199 44.398-188.4-195.6-136.8-352.8-130.8-370.8 126-189.6 297.6-112.8 304.8-109.2zm-421.2 210c-7.1992-61.199 2.3984-106.8 8.3984-127.2 32.398 9.6016 56.398 20.398 70.801 26.398-14.398 50.398-37.199 206.4 138 390-14.398 9.6016-31.199 19.199-48 27.602-123.6-123.6-160.8-240-169.2-316.8z"/>
 </g>
</svg>
