<?xml version="1.0" encoding="UTF-8"?>
<svg width="1200pt" height="1200pt" version="1.1" viewBox="0 0 1200 1200" xmlns="http://www.w3.org/2000/svg">
 <g>
  <rect width="1200" height="1200" fill="#ff59b9"/>
  <path d="m819.91 884.15-43.074-102.77c0-0.75391-0.75391-1.5117-1.5117-2.2656 0-0.75391 0.75391-2.2656 0.75391-3.0234 0-27.207-21.914-49.121-49.121-49.121-26.449 0-48.367 21.16-49.121 46.855h-12.09c5.2891-7.5586 8.3125-17.383 8.3125-27.207 0-27.207-21.914-49.121-49.121-49.121-27.207 0-49.121 21.914-49.121 49.121 0 9.8242 3.0234 19.648 8.3125 27.207h-10.578c-4.5352 0-8.3125 3.0234-10.578 6.8008l-43.074 102.78c-23.426 0.75391-42.32 20.402-42.32 44.586s19.648 44.586 44.586 44.586h296.24c24.184 0 44.586-19.648 44.586-44.586 0-23.43-18.895-43.078-43.078-43.836zm-194.97-163.23c14.359 0 26.449 12.09 26.449 26.449s-12.094 26.453-26.449 26.453c-14.359 0-26.449-12.09-26.449-26.449 0-14.359 12.09-26.453 26.449-26.453zm102.02 28.719c13.602 0 24.938 10.578 26.449 24.184h-52.145c0.75781-13.602 12.094-24.184 25.695-24.184zm-145.85 47.609h177.59l46.855 111.85h-272.06zm237.29 152.66h-296.24c-12.09 0-21.914-9.8242-21.914-21.914 0-6.8008 3.0234-12.848 8.3125-16.625l-1.5117 3.7773c-1.5117 3.7773-0.75391 7.5586 0.75391 10.578 2.2656 3.0234 5.2891 5.2891 9.0703 5.2891h306.06c3.7773 0 7.5586-2.2656 9.0703-5.2891 2.2656-3.0234 2.2656-6.8008 0.75391-10.578l-1.5117-3.7773c5.2891 3.7773 8.3125 9.8242 8.3125 16.625 0.75781 12.09-9.0664 21.914-21.16 21.914z"/>
  <path d="m634.77 643.83 16.625 16.625c15.113 15.113 33.25 22.672 51.387 22.672 23.426 0 47.609-11.336 71.039-34.762l35.52-35.52c4.5352-4.5352 4.5352-11.336 0-15.871l-71.039-71.039c-6.0469-6.0469-9.0703-13.602-9.0703-21.914s3.0234-15.871 9.0703-21.914c9.8242-9.8242 15.871-23.426 15.871-37.785 0-2.2656 0-4.5352-0.75391-6.0469l20.402-154.16c0.75391-4.5352-2.2656-9.8242-6.0469-11.336-4.5352-2.2656-9.8242-1.5117-12.848 2.2656l-26.449 26.449-3.7773-63.48c0-4.5352-3.0234-8.3125-7.5586-9.8242-4.5352-1.5117-9.0703-0.75391-12.09 2.2656l-92.953 92.203c-38.543 6.0469-82.371 27.207-120.16 80.105-20.402-9.0703-71.793-30.23-142.07-36.273-6.0469-0.75391-12.09 3.7773-12.09 10.578-0.75391 6.0469 3.7773 12.09 10.578 12.09 25.695 2.2656 48.367 6.0469 68.016 11.336-9.8242 34.762-30.984 157.95 101.27 296.24-27.207 11.336-58.191 18.895-93.707 18.895-6.0469 0-11.336 5.2891-11.336 11.336 0 6.0469 5.2891 11.336 11.336 11.336 111.09-0.75391 188.93-71.035 210.84-94.465zm71.793-322.69v1.5117l-6.8008 7.5586c-9.8242-3.7773-29.473-9.0703-53.656-9.8242l56.68-55.922zm-274.32 164.75c-4.5352-38.543 1.5117-67.258 5.2891-80.105 20.402 6.0469 35.52 12.848 44.586 16.625-9.0703 31.738-23.426 129.98 86.906 245.61-9.0703 6.0469-19.648 12.09-30.23 17.383-77.836-77.84-101.26-151.14-106.55-199.51zm154.92 169.28c-117.89-122.43-85.398-221.42-81.617-232.76 79.352-119.4 187.42-71.039 191.95-68.77 4.5352 2.2656 9.8242 0.75391 12.848-2.2656l36.273-37.031-11.336 89.93-18.137-18.137c-4.5352-4.5352-11.336-4.5352-15.871 0-4.5352 4.5352-4.5352 11.336 0 15.871l21.16 21.16c6.0469 6.0469 9.0703 13.602 9.0703 21.914s-3.0234 15.871-9.0703 21.914c0 0 0 0.75391-0.75391 0.75391l-20.402-20.402c-4.5352-4.5352-11.336-4.5352-15.871 0s-4.5352 11.336 0 15.871l24.184 24.184c-1.5117 5.2891-3.0234 11.336-3.0234 17.383 0 14.359 5.2891 27.961 15.871 37.785l62.723 62.723-26.453 27.961c-15.113 15.113-55.168 47.609-90.688 12.09l-70.281-70.281c-4.5352-4.5352-11.336-4.5352-15.871 0-4.5352 4.5352-4.5352 11.336 0 15.871l37.031 37.031c-6.0469 6.043-16.625 15.867-31.738 27.203z"/>
 </g>
</svg>
